<svg xmlns="http://www.w3.org/2000/svg" viewBox="0 0 512 512" width="512" height="512">
  <polygon points="99.57,94.57 99.57,417.43 151,220.29 151,46" fill="#1B3152"/>
  <polygon points="99.57,417.43 99.57,94.57 46.71,46 46.71,460.29" fill="#294668"/>
  <polygon points="151,220.29 99.57,417.43 186.29,267.43" fill="#1B3152"/>
  <polygon points="296.71,51.71 151,220.29 186.29,267.43 299.57,131.29" fill="#E8C84A"/>
  <polygon points="465.29,46 296.71,51.71 299.57,131.29" fill="#F0D878"/>
  <polygon points="261.43,266.43 465.29,46 299.57,131.29 186.29,267.43" fill="#E8C84A"/>
  <polygon points="465.29,466 261.43,266.43 186.29,267.43 292,365.57" fill="#BEA056"/>
  <polygon points="302.43,463.14 465.29,466 292,365.57" fill="#A8842A"/>
  <polygon points="197.71,350.29 302.43,463.14 292,365.57 186.29,267.43" fill="#BEA056"/>
  <polygon points="151,460.29 151,380.29 99.57,417.43" fill="#1B3152"/>
  <polygon points="46.71,460.29 151,460.29 99.57,417.43" fill="#1B3152"/>
  <polygon points="151,46 46.71,46 99.57,94.57" fill="#294668"/>
  <polygon points="197.71,350.29 186.29,267.43 99.57,417.43 151,380.29" fill="#BEA056"/>
</svg>
